<?xml version="1.0" encoding="UTF-8" standalone="no"?>
<svg
   viewBox="0 0 640 640"
   version="1.1"
   id="svg1"
   sodipodi:docname="lightbulb-solid-full.svg"
   inkscape:version="1.4.3 (0d15f75042, 2025-12-25)"
   xmlns:inkscape="http://www.inkscape.org/namespaces/inkscape"
   xmlns:sodipodi="http://sodipodi.sourceforge.net/DTD/sodipodi-0.dtd"
   xmlns="http://www.w3.org/2000/svg"
   xmlns:svg="http://www.w3.org/2000/svg">
  <defs
     id="defs1" />
  <sodipodi:namedview
     id="namedview1"
     pagecolor="#ffffff"
     bordercolor="#000000"
     borderopacity="0.25"
     inkscape:showpageshadow="2"
     inkscape:pageopacity="0.0"
     inkscape:pagecheckerboard="0"
     inkscape:deskcolor="#d1d1d1"
     inkscape:zoom="1.3765625"
     inkscape:cx="320"
     inkscape:cy="320"
     inkscape:window-width="1854"
     inkscape:window-height="1131"
     inkscape:window-x="0"
     inkscape:window-y="0"
     inkscape:window-maximized="1"
     inkscape:current-layer="svg1" />
  <!--!Font Awesome Free 7.2.0 by @fontawesome - https://fontawesome.com License - https://fontawesome.com/license/free Copyright 2026 Fonticons, Inc.-->
  <path
     d="M420.9 448C428.2 425.7 442.8 405.5 459.3 388.1C492 353.7 512 307.2 512 256C512 150 426 64 320 64C214 64 128 150 128 256C128 307.2 148 353.7 180.7 388.1C197.2 405.5 211.9 425.7 219.1 448L420.8 448zM416 496L224 496L224 512C224 556.2 259.8 592 304 592L336 592C380.2 592 416 556.2 416 512L416 496zM312 176C272.2 176 240 208.2 240 248C240 261.3 229.3 272 216 272C202.7 272 192 261.3 192 248C192 181.7 245.7 128 312 128C325.3 128 336 138.7 336 152C336 165.3 325.3 176 312 176z"
     id="path1"
     style="fill:#0cb6ea;fill-opacity:1" />
</svg>
