<?xml version="1.0" encoding="UTF-8" standalone="no"?>
<svg
   viewBox="0 0 640 640"
   version="1.1"
   id="svg1"
   sodipodi:docname="spa-solid-full.svg"
   inkscape:version="1.4.3 (0d15f75042, 2025-12-25)"
   xmlns:inkscape="http://www.inkscape.org/namespaces/inkscape"
   xmlns:sodipodi="http://sodipodi.sourceforge.net/DTD/sodipodi-0.dtd"
   xmlns="http://www.w3.org/2000/svg"
   xmlns:svg="http://www.w3.org/2000/svg">
  <defs
     id="defs1" />
  <sodipodi:namedview
     id="namedview1"
     pagecolor="#ffffff"
     bordercolor="#000000"
     borderopacity="0.25"
     inkscape:showpageshadow="2"
     inkscape:pageopacity="0.0"
     inkscape:pagecheckerboard="0"
     inkscape:deskcolor="#d1d1d1"
     inkscape:zoom="1.3765625"
     inkscape:cx="320"
     inkscape:cy="320"
     inkscape:window-width="1854"
     inkscape:window-height="1131"
     inkscape:window-x="0"
     inkscape:window-y="0"
     inkscape:window-maximized="1"
     inkscape:current-layer="svg1" />
  <!--!Font Awesome Free 7.2.0 by @fontawesome - https://fontawesome.com License - https://fontawesome.com/license/free Copyright 2026 Fonticons, Inc.-->
  <path
     d="M201.7 291.5C236 310.2 266.2 335.6 290.5 366C301.6 379.9 311.5 394.9 319.9 410.8C328.4 394.9 338.2 380 349.3 366C373.6 335.5 403.8 310.1 438.1 291.5C479.8 268.8 527.5 256 577.8 256L587.7 256C598.8 256 607.8 265 607.8 276.1C607.8 424.1 487.9 544 339.9 544L299.7 544C151.9 544 32 424.1 32 276.1C32 265 41 256 52.1 256L62 256C112.4 256 160.1 268.8 201.7 291.5zM335.9 102C352.8 117.9 397.3 165.4 424.9 244.3C384.8 264.5 349.1 292.5 320 326.4C290.8 292.5 255.2 264.6 215.1 244.3C242.7 165.4 287.3 117.9 304.1 102C308.4 97.9 314.1 96 320 96C325.9 96 331.6 98 335.9 102z"
     id="path1"
     style="fill:#0cb6ea;fill-opacity:1" />
</svg>
