<?xml version="1.0" encoding="UTF-8" standalone="no"?>
<svg
   viewBox="0 0 640 640"
   version="1.1"
   id="svg1"
   sodipodi:docname="volume-xmark-solid-full.svg"
   inkscape:version="1.4.3 (0d15f75042, 2025-12-25)"
   xmlns:inkscape="http://www.inkscape.org/namespaces/inkscape"
   xmlns:sodipodi="http://sodipodi.sourceforge.net/DTD/sodipodi-0.dtd"
   xmlns="http://www.w3.org/2000/svg"
   xmlns:svg="http://www.w3.org/2000/svg">
  <defs
     id="defs1" />
  <sodipodi:namedview
     id="namedview1"
     pagecolor="#ffffff"
     bordercolor="#000000"
     borderopacity="0.25"
     inkscape:showpageshadow="2"
     inkscape:pageopacity="0.0"
     inkscape:pagecheckerboard="0"
     inkscape:deskcolor="#d1d1d1"
     inkscape:zoom="1.3765625"
     inkscape:cx="320"
     inkscape:cy="320"
     inkscape:window-width="1854"
     inkscape:window-height="1131"
     inkscape:window-x="0"
     inkscape:window-y="0"
     inkscape:window-maximized="1"
     inkscape:current-layer="svg1" />
  <!--!Font Awesome Free 7.2.0 by @fontawesome - https://fontawesome.com License - https://fontawesome.com/license/free Copyright 2026 Fonticons, Inc.-->
  <path
     d="M80 416L128 416L262.1 535.2C268.5 540.9 276.7 544 285.2 544C304.4 544 320 528.4 320 509.2L320 130.8C320 111.6 304.4 96 285.2 96C276.7 96 268.5 99.1 262.1 104.8L128 224L80 224C53.5 224 32 245.5 32 272L32 368C32 394.5 53.5 416 80 416zM399 239C389.6 248.4 389.6 263.6 399 272.9L446 319.9L399 366.9C389.6 376.3 389.6 391.5 399 400.8C408.4 410.1 423.6 410.2 432.9 400.8L479.9 353.8L526.9 400.8C536.3 410.2 551.5 410.2 560.8 400.8C570.1 391.4 570.2 376.2 560.8 366.9L513.8 319.9L560.8 272.9C570.2 263.5 570.2 248.3 560.8 239C551.4 229.7 536.2 229.6 526.9 239L479.9 286L432.9 239C423.5 229.6 408.3 229.6 399 239z"
     id="path1"
     style="fill:#0cb6ea;fill-opacity:1" />
</svg>
